<svg viewBox="0 0 207 207" fill="none" xmlns="http://www.w3.org/2000/svg">
<g clip-path="url(#clip0)">
<path d="M5.37307 205.106C2.40738 202.927 1.75955 198.753 3.94068 195.786L70.444 105.1L31.5417 52.0497L42.296 44.1569L86.9864 105.1L14.7015 203.672C12.5203 206.64 8.34689 207.286 5.37307 205.106ZM23.6555 41.2954L15.7741 30.5411L26.5219 22.6484L34.4163 33.4026L23.6555 41.2954ZM7.88788 19.7885L0 9.0342L10.7543 1.15283L18.6405 11.9071L7.88788 19.7885Z" fill="#FF7043"/>
<path d="M39.4506 205.106C36.4849 202.927 35.8371 198.753 38.0182 195.786L104.522 105.1L38.0248 14.4138C35.8436 11.4481 36.4914 7.27303 39.4571 5.09353C42.431 2.91403 46.6044 3.55372 48.7855 6.52754L121.07 105.1L48.779 203.672C46.5979 206.64 42.4245 207.286 39.4506 205.106V205.106Z" fill="#FDD835"/>
</g>
<defs>
<clipPath id="clip0">
<rect width="207" height="207" fill="white"/>
</clipPath>
</defs>
</svg>
