<svg viewBox="0 0 207 207" fill="none" xmlns="http://www.w3.org/2000/svg">
<g clip-path="url(#clip0)">
<path d="M201.627 205.107C204.593 202.927 205.24 198.754 203.059 195.786L136.556 105.1L175.458 52.0499L164.704 44.1572L120.014 105.1L192.299 203.673C194.48 206.64 198.653 207.286 201.627 205.107ZM183.345 41.2956L191.226 30.5414L180.478 22.6486L172.584 33.4029L183.345 41.2956ZM199.112 19.7887L207 9.03444L196.246 1.15308L188.359 11.9074L199.112 19.7887Z" fill="#FF7043"/>
<path d="M167.549 205.106C170.515 202.927 171.163 198.753 168.982 195.786L102.478 105.1L168.975 14.4138C171.156 11.4481 170.509 7.27303 167.543 5.09353C164.569 2.91403 160.396 3.55372 158.214 6.52754L85.9295 105.1L158.221 203.672C160.402 206.64 164.576 207.286 167.549 205.106V205.106Z" fill="#FDD835"/>
</g>
<defs>
<clipPath id="clip0">
<rect width="207" height="207" fill="white" transform="matrix(-1 0 0 1 207 0)"/>
</clipPath>
</defs>
</svg>
